<svg width="171" height="55" viewBox="0 0 171 55" fill="none" xmlns="http://www.w3.org/2000/svg">
<g clip-path="url(#clip0_1_24701)">
<path d="M40.3158 28.5669H36.2825L38.4265 21.6033L40.3158 28.5669ZM34.3932 35.6152L35.6669 31.3608H40.8465L42.1202 35.6152H46.4083L41.8443 19.4867C41.5895 18.4284 41.0801 18.0897 39.955 18.0897H33.629V19.5502H34.1385C34.9027 19.5502 35.2848 19.783 35.2848 20.3757C35.2848 20.7355 35.2848 20.9895 34.9027 21.8573L30.3386 35.6152" fill="#004A93"/>
<path d="M51.8212 35.6151V19.3807C51.8212 18.5341 51.3117 18.0896 50.4414 18.0896H46.5142V19.5501H46.7689C47.5331 19.5501 47.9152 19.8675 47.9152 20.5449V35.6151H51.8212ZM58.8902 35.6151V19.3807C58.8902 18.5341 58.3807 18.0896 57.5103 18.0896H53.5831V19.5501H53.8379C54.6021 19.5501 54.9842 19.8675 54.9842 20.5449V35.6151" fill="#004A93"/>
<path d="M66.108 19.6347C66.108 18.4705 65.2165 17.7932 63.8366 17.7932C62.3294 17.7932 61.5652 18.4705 61.5652 19.6347C61.5652 20.82 62.3294 21.5184 63.8366 21.5184C65.2165 21.5184 66.108 20.82 66.108 19.6347ZM65.9807 35.615V23.7832C65.9807 22.9577 65.4712 22.4921 64.707 22.4921H60.7798V23.9102H61.0345C61.7987 23.9102 62.0535 24.2277 62.0535 24.9473V35.615H65.9807ZM75.3211 29.2441V31.8686C74.5568 32.6306 73.6865 33.0539 72.9223 33.0539C72.1581 33.0539 71.776 32.6941 71.776 31.6993C71.776 30.6198 72.0307 30.1965 72.9223 29.8579C73.5591 29.6039 74.196 29.4345 75.3211 29.2441ZM69.7593 26.1115L70.1414 25.9633C71.1603 25.5612 71.776 25.413 72.5402 25.2648C72.9223 25.2225 73.4317 25.159 73.6865 25.159C74.9602 25.159 75.3211 25.5823 75.3211 26.7253V27.0428C73.5591 27.3391 73.0496 27.4238 72.0307 27.6566C71.5212 27.7836 71.0117 27.9529 70.5235 28.1646C68.8889 28.8207 68.1247 30.0695 68.1247 32.0591C68.1247 34.5356 69.1437 35.7209 71.4151 35.7209C72.3067 35.7209 73.177 35.5092 73.8139 35.1071C74.4507 34.8107 74.7054 34.6626 75.4484 33.9641V34.3662C75.4484 35.1917 75.8305 35.5727 76.5947 35.5727H80.3946V34.2181H80.2672C79.503 34.2181 79.1209 33.8794 79.1209 33.2021V26.7888C79.1209 23.4446 77.9746 22.3016 74.7054 22.3016C73.5591 22.3016 72.5614 22.4286 71.5424 22.6614C70.5235 22.8942 70.0353 23.0847 68.8889 23.6774L69.7593 26.1115ZM86.3172 35.615V26.7253C87.2088 25.8998 87.8244 25.5823 88.716 25.5823C89.6076 25.5823 89.8623 25.9633 89.8623 27.2968V35.615H93.7895V26.6618C93.7895 24.8203 93.5348 24.0372 93.0253 23.3387C92.3885 22.6614 91.6455 22.3439 90.4992 22.3439C88.992 22.3439 87.8456 22.8942 86.0837 24.4182V23.7197C86.0837 22.8942 85.7016 22.4921 84.9374 22.4921H81.1376V23.9102H81.2649C82.0291 23.9102 82.4112 24.2277 82.4112 24.9473V35.615" fill="#004A93"/>
<path d="M105.913 33.1492H100.155L105.769 25.2553V22.5283H97.4198C96.4122 22.5283 95.9803 22.9589 95.9803 23.9635V26.4035H97.4198V26.1164C97.4198 25.3988 97.8517 25.1117 98.5714 25.1117H101.594L95.8364 33.0056V35.7327H105.913" fill="#004A93"/>
<path d="M128.224 34.8716V20.0884C128.224 18.9401 127.649 18.5096 126.641 18.5096H123.186V20.0884H123.618C124.194 20.0884 124.482 20.3754 124.482 21.0931V34.8716H128.224ZM130.24 34.8716H133.838V23.6765C133.838 22.5283 133.263 22.0977 132.255 22.0977H130.24V34.8716ZM122.467 34.8716V22.0977H120.451C119.3 22.0977 118.868 22.5283 118.868 23.6765V34.8716H122.467ZM138.301 27.4082C138.301 34.2974 133.263 39.4643 126.353 39.4643C119.444 39.4643 114.406 34.441 114.406 27.4082C114.406 20.519 119.444 15.352 126.353 15.352C133.263 15.352 138.301 20.519 138.301 27.4082ZM140.604 27.4082C140.604 19.2273 134.558 13.1991 126.353 13.1991C118.292 13.1991 112.103 19.2273 112.103 27.4082C112.103 35.5892 118.292 41.6172 126.353 41.6172C134.558 41.6172 140.604 35.5892 140.604 27.4082Z" fill="#004A93"/>
</g>
<defs>
<clipPath id="clip0_1_24701">
<rect width="110.323" height="28.4683" fill="white" transform="translate(30.3386 13.2)"/>
</clipPath>
</defs>
</svg>
