<svg width="56" height="56" viewBox="0 0 56 56" fill="none" xmlns="http://www.w3.org/2000/svg">
<circle cx="28" cy="28" r="28" fill="url(#paint0_linear_1_24213)"/>
<path d="M40.3125 19.0509L28.3125 15.0509C28.1089 14.9882 27.8911 14.9882 27.6875 15.0509L15.7 19.0509H15.675L15.55 19.1134H15.5375L15.4125 19.1884C15.4125 19.2009 15.4 19.2009 15.3875 19.2134L15.2875 19.3009L15.2 19.4009C15.2 19.4134 15.1875 19.4134 15.1875 19.4259L15.1125 19.5384C15.1125 19.5509 15.1125 19.5509 15.1 19.5634L15.05 19.6759L15.0125 19.8134V19.8509C15.0002 19.8999 14.996 19.9506 15 20.0009V30.0009C15 30.2661 15.1054 30.5205 15.2929 30.708C15.4805 30.8955 15.7348 31.0009 16 31.0009C16.2652 31.0009 16.5196 30.8955 16.7071 30.708C16.8947 30.5205 17 30.2661 17 30.0009V21.3884L21.2 22.7884C20.411 24.0514 19.995 25.5117 20 27.0009C20.0005 28.3553 20.3448 29.6874 21.0007 30.8724C21.6566 32.0573 22.6026 33.0564 23.75 33.7759C21.3655 34.678 19.3298 36.3153 17.9375 38.4509C17.7956 38.6753 17.7475 38.9465 17.8036 39.206C17.8598 39.4656 18.0156 39.6927 18.2375 39.8384C18.3464 39.9106 18.4686 39.9604 18.5969 39.985C18.7252 40.0096 18.8572 40.0085 18.9851 39.9818C19.113 39.9551 19.2343 39.9032 19.342 39.8292C19.4497 39.7553 19.5416 39.6607 19.6125 39.5509C20.5202 38.1528 21.7629 37.0037 23.2278 36.2082C24.6926 35.4128 26.3331 34.9961 28 34.9961C29.6669 34.9961 31.3074 35.4128 32.7723 36.2082C34.2371 37.0037 35.4799 38.1528 36.3875 39.5509C36.4788 39.6895 36.6032 39.8032 36.7494 39.8818C36.8956 39.9604 37.059 40.0013 37.225 40.0009C37.4166 40.0029 37.6042 39.9462 37.7625 39.8384C37.9845 39.6927 38.1403 39.4656 38.1964 39.206C38.2525 38.9465 38.2044 38.6753 38.0625 38.4509C36.6702 36.3153 34.6345 34.678 32.25 33.7759C33.3975 33.0564 34.3435 32.0573 34.9994 30.8724C35.6553 29.6874 35.9996 28.3553 36 27.0009C36.0051 25.5117 35.5891 24.0514 34.8 22.7884L40.3125 20.9509C40.5126 20.8851 40.6868 20.7579 40.8103 20.5873C40.9338 20.4167 41.0003 20.2115 41.0003 20.0009C41.0003 19.7903 40.9338 19.5851 40.8103 19.4145C40.6868 19.2439 40.5126 19.1167 40.3125 19.0509ZM28 33.0009C26.4087 33.0009 24.8826 32.3688 23.7574 31.2435C22.6322 30.1183 22 28.5922 22 27.0009C22.0024 25.7206 22.4093 24.4737 23.1625 23.4384L27.6875 24.9509C27.8905 25.0177 28.1095 25.0177 28.3125 24.9509L32.8375 23.4384C33.5908 24.4737 33.9976 25.7206 34 27.0009C34 28.5922 33.3679 30.1183 32.2427 31.2435C31.1175 32.3688 29.5913 33.0009 28 33.0009Z" fill="white"/>
<defs>
<linearGradient id="paint0_linear_1_24213" x1="-13.1511" y1="3.0439" x2="69.5918" y2="57.1452" gradientUnits="userSpaceOnUse">
<stop stop-color="#5A7EE6"/>
<stop offset="1" stop-color="#B95AE6"/>
</linearGradient>
</defs>
</svg>
