<svg width="33" height="33" viewBox="0 0 33 33" fill="none" xmlns="http://www.w3.org/2000/svg">
<path d="M28.4502 20.778L22.5877 18.278C22.2852 18.1425 21.9531 18.0862 21.6229 18.1147C21.2926 18.1431 20.9751 18.2553 20.7002 18.4405L17.5627 20.528C15.6505 19.5993 14.1023 18.0599 13.1627 16.153L15.2377 12.978C15.4217 12.7029 15.5342 12.3861 15.5647 12.0565C15.5953 11.7269 15.543 11.3948 15.4127 11.0905L12.9002 5.22804C12.7249 4.83218 12.428 4.50246 12.0527 4.28669C11.6773 4.07092 11.243 3.98033 10.8127 4.02804C9.12469 4.24917 7.57441 5.07575 6.4501 6.35411C5.32579 7.63247 4.70395 9.27561 4.7002 10.978C4.7002 20.903 12.7752 28.978 22.7002 28.978C24.4026 28.9743 26.0458 28.3524 27.3241 27.2281C28.6025 26.1038 29.4291 24.5535 29.6502 22.8655C29.6979 22.4352 29.6073 22.0009 29.3915 21.6256C29.1758 21.2502 28.8461 20.9534 28.4502 20.778Z" fill="url(#paint0_linear_1_24858)"/>
<path d="M20.3747 6.93853C21.8969 7.35439 23.2843 8.15995 24.4 9.27571C25.5158 10.3915 26.3214 11.7789 26.7372 13.301C26.7924 13.5147 26.9167 13.7042 27.0908 13.8399C27.2649 13.9755 27.479 14.0498 27.6997 14.051C27.7885 14.0509 27.8769 14.0382 27.9622 14.0135C28.0893 13.9803 28.2085 13.922 28.3128 13.8421C28.4171 13.7621 28.5045 13.6622 28.5696 13.5481C28.6348 13.434 28.6766 13.3081 28.6925 13.1777C28.7084 13.0472 28.6981 12.9149 28.6622 12.7885C28.1623 10.9244 27.1806 9.22461 25.8159 7.85987C24.4512 6.49514 22.7514 5.5135 20.8872 5.01353C20.7568 4.96601 20.6179 4.94617 20.4793 4.95528C20.3408 4.96438 20.2057 5.00223 20.0826 5.06642C19.9595 5.1306 19.8511 5.21971 19.7643 5.32808C19.6776 5.43645 19.6143 5.5617 19.5786 5.69585C19.5429 5.83001 19.5355 5.97013 19.5569 6.1073C19.5783 6.24447 19.628 6.37568 19.7029 6.49257C19.7778 6.60947 19.8762 6.70949 19.9919 6.78627C20.1075 6.86305 20.2379 6.91491 20.3747 6.93853Z" fill="url(#paint1_linear_1_24858)"/>
<path d="M19.3376 10.8018C20.1837 11.0334 20.9549 11.4814 21.5752 12.1017C22.1955 12.722 22.6435 13.4932 22.8751 14.3393C22.9283 14.5541 23.0521 14.7448 23.2267 14.8808C23.4012 15.0168 23.6164 15.0902 23.8376 15.0893C23.9224 15.0901 24.0068 15.0775 24.0876 15.0518C24.2159 15.0199 24.3364 14.9626 24.4421 14.8833C24.5478 14.804 24.6365 14.7042 24.7029 14.59C24.7694 14.4758 24.8122 14.3493 24.8289 14.2183C24.8456 14.0872 24.8358 13.9541 24.8001 13.8268C24.4844 12.6387 23.8603 11.5551 22.9911 10.6859C22.1218 9.81658 21.0382 9.1925 19.8501 8.87682C19.7197 8.82929 19.5808 8.80945 19.4422 8.81856C19.3037 8.82766 19.1686 8.86551 19.0455 8.9297C18.9224 8.99388 18.814 9.08299 18.7272 9.19136C18.6404 9.29973 18.5772 9.42498 18.5415 9.55913C18.5058 9.69329 18.4984 9.83341 18.5198 9.97058C18.5412 10.1078 18.5909 10.239 18.6658 10.3559C18.7407 10.4728 18.8391 10.5728 18.9548 10.6496C19.0704 10.7263 19.2008 10.7782 19.3376 10.8018Z" fill="url(#paint2_linear_1_24858)"/>
<defs>
<linearGradient id="paint0_linear_1_24858" x1="3.60657" y1="2.72979" x2="37.6544" y2="11.1381" gradientUnits="userSpaceOnUse">
<stop stop-color="#018085"/>
<stop offset="1" stop-color="#019298"/>
</linearGradient>
<linearGradient id="paint1_linear_1_24858" x1="19.1438" y1="4.48448" x2="31.6217" y2="7.58524" gradientUnits="userSpaceOnUse">
<stop stop-color="#018085"/>
<stop offset="1" stop-color="#019298"/>
</linearGradient>
<linearGradient id="paint2_linear_1_24858" x1="18.2305" y1="8.49328" x2="26.8542" y2="10.642" gradientUnits="userSpaceOnUse">
<stop stop-color="#018085"/>
<stop offset="1" stop-color="#019298"/>
</linearGradient>
</defs>
</svg>
